<mxfile host="app.diagrams.net" modified="2022-08-14T14:17:17.403Z" agent="5.0 (X11)" etag="NjfYK27hBl_lvD2bz1QR" version="17.4.6" type="github">
  <diagram id="B1HYyHllb_1G-tCJ6Y_t" name="Page-1">
    <mxGraphModel dx="746" dy="444" grid="1" gridSize="10" guides="1" tooltips="1" connect="1" arrows="1" fold="1" page="1" pageScale="1" pageWidth="850" pageHeight="1100" math="0" shadow="0">
      <root>
        <mxCell id="0" />
        <mxCell id="1" parent="0" />
        <mxCell id="l1_Q-1XUEX0h0jLdZMR2-9" value="" style="verticalLabelPosition=bottom;verticalAlign=top;html=1;shape=card;whiteSpace=wrap;size=20;arcSize=12;fillColor=none;gradientColor=#ffffff;gradientDirection=east;" vertex="1" parent="1">
          <mxGeometry x="173" y="230" width="385" height="170" as="geometry" />
        </mxCell>
        <mxCell id="l1_Q-1XUEX0h0jLdZMR2-13" style="edgeStyle=orthogonalEdgeStyle;rounded=0;orthogonalLoop=1;jettySize=auto;html=1;exitX=1;exitY=0.5;exitDx=0;exitDy=0;entryX=0;entryY=0.5;entryDx=0;entryDy=0;entryPerimeter=0;" edge="1" parent="1" source="l1_Q-1XUEX0h0jLdZMR2-1" target="l1_Q-1XUEX0h0jLdZMR2-10">
          <mxGeometry relative="1" as="geometry" />
        </mxCell>
        <mxCell id="l1_Q-1XUEX0h0jLdZMR2-1" value="&lt;div&gt;Pretrained&lt;/div&gt;&lt;div&gt;Language Model&lt;br&gt;&lt;/div&gt;" style="rounded=0;whiteSpace=wrap;html=1;gradientColor=#ffffff;fillColor=none;gradientDirection=east;" vertex="1" parent="1">
          <mxGeometry x="210" y="348" width="100" height="40" as="geometry" />
        </mxCell>
        <mxCell id="l1_Q-1XUEX0h0jLdZMR2-2" value="Target task" style="ellipse;shape=cloud;whiteSpace=wrap;html=1;" vertex="1" parent="1">
          <mxGeometry x="480" y="80" width="180" height="120" as="geometry" />
        </mxCell>
        <mxCell id="l1_Q-1XUEX0h0jLdZMR2-3" value="Engineer" style="shape=umlActor;verticalLabelPosition=bottom;verticalAlign=top;html=1;outlineConnect=0;fillColor=#EA6B66;gradientColor=#ffffff;gradientDirection=west;" vertex="1" parent="1">
          <mxGeometry x="368" y="100" width="30" height="60" as="geometry" />
        </mxCell>
        <mxCell id="l1_Q-1XUEX0h0jLdZMR2-4" value="" style="endArrow=classic;html=1;rounded=0;exitX=0.07;exitY=0.4;exitDx=0;exitDy=0;exitPerimeter=0;" edge="1" parent="1" source="l1_Q-1XUEX0h0jLdZMR2-2">
          <mxGeometry width="50" height="50" relative="1" as="geometry">
            <mxPoint x="420" y="240" as="sourcePoint" />
            <mxPoint x="410" y="130" as="targetPoint" />
          </mxGeometry>
        </mxCell>
        <mxCell id="l1_Q-1XUEX0h0jLdZMR2-6" value="" style="endArrow=classic;html=1;rounded=0;entryX=0.46;entryY=-0.033;entryDx=0;entryDy=0;entryPerimeter=0;" edge="1" parent="1" target="l1_Q-1XUEX0h0jLdZMR2-18">
          <mxGeometry width="50" height="50" relative="1" as="geometry">
            <mxPoint x="383" y="190" as="sourcePoint" />
            <mxPoint x="220" y="260" as="targetPoint" />
          </mxGeometry>
        </mxCell>
        <mxCell id="l1_Q-1XUEX0h0jLdZMR2-10" value="" style="strokeWidth=2;html=1;shape=mxgraph.flowchart.decision;whiteSpace=wrap;fillColor=none;gradientColor=#ffffff;gradientDirection=east;" vertex="1" parent="1">
          <mxGeometry x="350" y="353" width="30" height="30" as="geometry" />
        </mxCell>
        <mxCell id="l1_Q-1XUEX0h0jLdZMR2-14" value="Use Case" style="ellipse;whiteSpace=wrap;html=1;fillColor=none;gradientColor=#ffffff;gradientDirection=east;" vertex="1" parent="1">
          <mxGeometry x="410" y="348" width="80" height="40" as="geometry" />
        </mxCell>
        <mxCell id="l1_Q-1XUEX0h0jLdZMR2-15" value="" style="endArrow=classic;html=1;rounded=0;exitX=1;exitY=0.5;exitDx=0;exitDy=0;exitPerimeter=0;entryX=0;entryY=0.5;entryDx=0;entryDy=0;" edge="1" parent="1" source="l1_Q-1XUEX0h0jLdZMR2-10" target="l1_Q-1XUEX0h0jLdZMR2-14">
          <mxGeometry width="50" height="50" relative="1" as="geometry">
            <mxPoint x="360" y="268" as="sourcePoint" />
            <mxPoint x="410" y="218" as="targetPoint" />
          </mxGeometry>
        </mxCell>
        <mxCell id="l1_Q-1XUEX0h0jLdZMR2-16" value="&lt;div&gt;Pretrained&lt;/div&gt;&lt;div&gt;Language Model&lt;br&gt;&lt;/div&gt;" style="rounded=0;whiteSpace=wrap;html=1;gradientColor=#ffffff;fillColor=none;gradientDirection=east;" vertex="1" parent="1">
          <mxGeometry x="410" y="288" width="100" height="40" as="geometry" />
        </mxCell>
        <mxCell id="l1_Q-1XUEX0h0jLdZMR2-17" value="" style="endArrow=classic;html=1;rounded=0;exitX=0.5;exitY=0;exitDx=0;exitDy=0;exitPerimeter=0;entryX=0;entryY=0.5;entryDx=0;entryDy=0;" edge="1" parent="1" source="l1_Q-1XUEX0h0jLdZMR2-10" target="l1_Q-1XUEX0h0jLdZMR2-16">
          <mxGeometry width="50" height="50" relative="1" as="geometry">
            <mxPoint x="360" y="268" as="sourcePoint" />
            <mxPoint x="410" y="218" as="targetPoint" />
            <Array as="points">
              <mxPoint x="365" y="308" />
            </Array>
          </mxGeometry>
        </mxCell>
        <mxCell id="l1_Q-1XUEX0h0jLdZMR2-18" value="Simple rule-based system" style="text;html=1;strokeColor=none;fillColor=none;align=center;verticalAlign=middle;whiteSpace=wrap;rounded=0;" vertex="1" parent="1">
          <mxGeometry x="290" y="230" width="200" height="30" as="geometry" />
        </mxCell>
      </root>
    </mxGraphModel>
  </diagram>
</mxfile>
